<svg xmlns="http://www.w3.org/2000/svg" viewBox="0 0 450 372" font-family="Arial, sans-serif">
<rect width="450" height="372" fill="#ffffff" rx="8"/>
<g><clipPath id="clip-11510220"><rect x="115" y="10" width="220" height="220"/></clipPath><rect x="115" y="10" width="220" height="220" fill="none" stroke="#cbd5e1" stroke-width="1.5" rx="6"/><g clip-path="url(#clip-11510220)"><rect x="128.2" y="71.6" width="48.4" height="48.4" fill="#f8fafc" stroke="#334155" stroke-width="1.5"/><polygon points="152.4,81.3 161.1,92.9 156,92.9 156,110.3 148.8,110.3 148.8,92.9 143.7,92.9" fill="#60a5fa" stroke="#334155" stroke-width="2"/><rect x="176.6" y="71.6" width="48.4" height="48.4" fill="#f8fafc" stroke="#334155" stroke-width="1.5"/><polygon points="196,81.3 205.6,81.3 205.6,91 215.3,91 215.3,100.6 205.6,100.6 205.6,110.3 196,110.3 196,100.6 186.3,100.6 186.3,91 196,91" fill="#60a5fa" stroke="#334155" stroke-width="2"/><rect x="225" y="71.6" width="48.4" height="48.4" fill="#f8fafc" stroke="#334155" stroke-width="1.5"/><polygon points="249.2,81.3 263.7,95.8 249.2,110.3 234.7,95.8" fill="#60a5fa" stroke="#334155" stroke-width="2"/><rect x="273.4" y="71.6" width="48.4" height="48.4" fill="#f8fafc" stroke="#334155" stroke-width="1.5"/><polygon points="297.6,81.3 310.2,103.1 285,103.1" fill="#60a5fa" stroke="#334155" stroke-width="2"/><rect x="176.6" y="23.2" width="48.4" height="48.4" fill="#f8fafc" stroke="#334155" stroke-width="1.5"/><polygon points="189.2,35.8 212.4,35.8 212.4,59 189.2,59" fill="#60a5fa" stroke="#334155" stroke-width="2"/><rect x="176.6" y="120" width="48.4" height="48.4" fill="#fef3c7" stroke="#334155" stroke-width="3"/><polygon points="200.8,129.7 214.6,139.7 209.4,156 192.2,156 187,139.7" fill="#60a5fa" stroke="#334155" stroke-width="2"/></g></g>
<line x1="10" y1="240" x2="440" y2="240" stroke="#cbd5e1" stroke-width="1"/>
<text x="60" y="256" text-anchor="middle" font-size="15" font-weight="bold" fill="#334155">A</text>
<g><clipPath id="clip-10262100"><rect x="10" y="262" width="100" height="100"/></clipPath><rect x="10" y="262" width="100" height="100" fill="none" stroke="#cbd5e1" stroke-width="1.5" rx="6"/><g clip-path="url(#clip-10262100)"><polygon points="49.1,279 70.9,279 70.9,301.1 93,301.1 93,322.9 70.9,322.9 70.9,345 49.1,345 49.1,322.9 27,322.9 27,301.1 49.1,301.1" fill="#60a5fa" stroke="#334155" stroke-width="2"/></g></g>
<text x="170" y="256" text-anchor="middle" font-size="15" font-weight="bold" fill="#334155">B</text>
<g><clipPath id="clip-120262100"><rect x="120" y="262" width="100" height="100"/></clipPath><rect x="120" y="262" width="100" height="100" fill="none" stroke="#cbd5e1" stroke-width="1.5" rx="6"/><g clip-path="url(#clip-120262100)"><polygon points="170,279 198.7,328.5 141.3,328.5" fill="#60a5fa" stroke="#334155" stroke-width="2"/></g></g>
<text x="280" y="256" text-anchor="middle" font-size="15" font-weight="bold" fill="#334155">C</text>
<g><clipPath id="clip-230262100"><rect x="230" y="262" width="100" height="100"/></clipPath><rect x="230" y="262" width="100" height="100" fill="none" stroke="#cbd5e1" stroke-width="1.5" rx="6"/><g clip-path="url(#clip-230262100)"><polygon points="280,279 313,312 280,345 247,312" fill="#60a5fa" stroke="#334155" stroke-width="2"/></g></g>
<text x="390" y="256" text-anchor="middle" font-size="15" font-weight="bold" fill="#334155">D</text>
<g><clipPath id="clip-340262100"><rect x="340" y="262" width="100" height="100"/></clipPath><rect x="340" y="262" width="100" height="100" fill="none" stroke="#cbd5e1" stroke-width="1.5" rx="6"/><g clip-path="url(#clip-340262100)"><polygon points="363.6,285.6 416.4,285.6 416.4,338.4 363.6,338.4" fill="#60a5fa" stroke="#334155" stroke-width="2"/></g></g>
</svg>