<svg xmlns="http://www.w3.org/2000/svg" viewBox="0 0 450 372" font-family="Arial, sans-serif">
<rect width="450" height="372" fill="#ffffff" rx="8"/>
<g><clipPath id="clip-11510220"><rect x="115" y="10" width="220" height="220"/></clipPath><rect x="115" y="10" width="220" height="220" fill="none" stroke="#cbd5e1" stroke-width="1.5" rx="6"/><g clip-path="url(#clip-11510220)"><rect x="128.2" y="71.6" width="48.4" height="48.4" fill="#f8fafc" stroke="#334155" stroke-width="1.5"/><polygon points="159.7,83.2 166.9,95.8 159.7,108.4 145.1,108.4 137.9,95.8 145.1,83.2" fill="#60a5fa" stroke="#334155" stroke-width="2"/><rect x="176.6" y="71.6" width="48.4" height="48.4" fill="#f8fafc" stroke="#334155" stroke-width="1.5"/><circle cx="200.8" cy="95.8" r="14.5" fill="none" stroke="#334155" stroke-width="2"/><rect x="225" y="71.6" width="48.4" height="48.4" fill="#f8fafc" stroke="#334155" stroke-width="1.5"/><polygon points="249.2,81.3 263.7,95.8 249.2,110.3 234.7,95.8" fill="#60a5fa" stroke="#334155" stroke-width="2"/><rect x="273.4" y="71.6" width="48.4" height="48.4" fill="#fef3c7" stroke="#334155" stroke-width="3"/><circle cx="297.6" cy="95.8" r="14.5" fill="#60a5fa" stroke="#334155" stroke-width="2"/><rect x="176.6" y="23.2" width="48.4" height="48.4" fill="#f8fafc" stroke="#334155" stroke-width="1.5"/><polygon points="208.1,34.8 215.3,47.4 208.1,60 193.5,60 186.3,47.4 193.5,34.8" fill="none" stroke="#334155" stroke-width="2"/><rect x="176.6" y="120" width="48.4" height="48.4" fill="#f8fafc" stroke="#334155" stroke-width="1.5"/><polygon points="200.8,129.7 215.3,144.2 200.8,158.7 186.3,144.2" fill="none" stroke="#334155" stroke-width="2"/></g></g>
<line x1="10" y1="240" x2="440" y2="240" stroke="#cbd5e1" stroke-width="1"/>
<text x="60" y="256" text-anchor="middle" font-size="15" font-weight="bold" fill="#334155">A</text>
<g><clipPath id="clip-10262100"><rect x="10" y="262" width="100" height="100"/></clipPath><rect x="10" y="262" width="100" height="100" fill="none" stroke="#cbd5e1" stroke-width="1.5" rx="6"/><g clip-path="url(#clip-10262100)"><polygon points="76.5,283.3 93,312 76.5,340.7 43.5,340.7 27,312 43.5,283.3" fill="none" stroke="#334155" stroke-width="2"/></g></g>
<text x="170" y="256" text-anchor="middle" font-size="15" font-weight="bold" fill="#334155">B</text>
<g><clipPath id="clip-120262100"><rect x="120" y="262" width="100" height="100"/></clipPath><rect x="120" y="262" width="100" height="100" fill="none" stroke="#cbd5e1" stroke-width="1.5" rx="6"/><g clip-path="url(#clip-120262100)"><polygon points="186.5,283.3 203,312 186.5,340.7 153.5,340.7 137,312 153.5,283.3" fill="#60a5fa" stroke="#334155" stroke-width="2"/></g></g>
<text x="280" y="256" text-anchor="middle" font-size="15" font-weight="bold" fill="#334155">C</text>
<g><clipPath id="clip-230262100"><rect x="230" y="262" width="100" height="100"/></clipPath><rect x="230" y="262" width="100" height="100" fill="none" stroke="#cbd5e1" stroke-width="1.5" rx="6"/><g clip-path="url(#clip-230262100)"><polygon points="280,279 313,312 280,345 247,312" fill="none" stroke="#334155" stroke-width="2"/></g></g>
<text x="390" y="256" text-anchor="middle" font-size="15" font-weight="bold" fill="#334155">D</text>
<g><clipPath id="clip-340262100"><rect x="340" y="262" width="100" height="100"/></clipPath><rect x="340" y="262" width="100" height="100" fill="none" stroke="#cbd5e1" stroke-width="1.5" rx="6"/><g clip-path="url(#clip-340262100)"><circle cx="390" cy="312" r="33" fill="none" stroke="#334155" stroke-width="2"/></g></g>
</svg>