<svg xmlns="http://www.w3.org/2000/svg" viewBox="0 0 610 262" font-family="Arial, sans-serif">
<rect width="610" height="262" fill="#ffffff" rx="8"/>
<g><clipPath id="clip-1010110"><rect x="10" y="10" width="110" height="110"/></clipPath><rect x="10" y="10" width="110" height="110" fill="none" stroke="#cbd5e1" stroke-width="1.5" rx="6"/><g clip-path="url(#clip-1010110)"><polygon points="37.4,37.4 92.6,37.4 92.6,92.6 37.4,92.6" fill="none" stroke="#334155" stroke-width="2"/></g></g>
<g><clipPath id="clip-13010110"><rect x="130" y="10" width="110" height="110"/></clipPath><rect x="130" y="10" width="110" height="110" fill="none" stroke="#cbd5e1" stroke-width="1.5" rx="6"/><g clip-path="url(#clip-13010110)"><polygon points="149.3,29.3 181.1,29.3 181.1,61.1 149.3,61.1" fill="none" stroke="#334155" stroke-width="2"/><polygon points="188.9,68.9 220.7,68.9 220.7,100.7 188.9,100.7" fill="none" stroke="#334155" stroke-width="2"/></g></g>
<g><clipPath id="clip-25010110"><rect x="250" y="10" width="110" height="110"/></clipPath><rect x="250" y="10" width="110" height="110" fill="none" stroke="#cbd5e1" stroke-width="1.5" rx="6"/><g clip-path="url(#clip-25010110)"><polygon points="289.1,24.9 320.9,24.9 320.9,56.7 289.1,56.7" fill="none" stroke="#334155" stroke-width="2"/><polygon points="267.1,71.1 298.9,71.1 298.9,102.9 267.1,102.9" fill="none" stroke="#334155" stroke-width="2"/><polygon points="311.1,71.1 342.9,71.1 342.9,102.9 311.1,102.9" fill="none" stroke="#334155" stroke-width="2"/></g></g>
<g><clipPath id="clip-37010110"><rect x="370" y="10" width="110" height="110"/></clipPath><rect x="370" y="10" width="110" height="110" fill="none" stroke="#cbd5e1" stroke-width="1.5" rx="6"/><g clip-path="url(#clip-37010110)"><polygon points="397.4,37.4 452.6,37.4 452.6,92.6 397.4,92.6" fill="none" stroke="#334155" stroke-width="2"/></g></g>
<g><clipPath id="clip-49010110"><rect x="490" y="10" width="110" height="110"/></clipPath><rect x="490" y="10" width="110" height="110" fill="none" stroke="#cbd5e1" stroke-width="1.5" rx="6"/><text x="545" y="75" text-anchor="middle" font-size="44" fill="#334155">?</text></g>
<line x1="10" y1="130" x2="600" y2="130" stroke="#cbd5e1" stroke-width="1"/>
<text x="140" y="146" text-anchor="middle" font-size="15" font-weight="bold" fill="#334155">A</text>
<g><clipPath id="clip-90152100"><rect x="90" y="152" width="100" height="100"/></clipPath><rect x="90" y="152" width="100" height="100" fill="none" stroke="#cbd5e1" stroke-width="1.5" rx="6"/><g clip-path="url(#clip-90152100)"><polygon points="122,166 137.7,193 106.3,193" fill="none" stroke="#334155" stroke-width="2"/><polygon points="158,202 173.7,229 142.3,229" fill="none" stroke="#334155" stroke-width="2"/></g></g>
<text x="250" y="146" text-anchor="middle" font-size="15" font-weight="bold" fill="#334155">B</text>
<g><clipPath id="clip-200152100"><rect x="200" y="152" width="100" height="100"/></clipPath><rect x="200" y="152" width="100" height="100" fill="none" stroke="#cbd5e1" stroke-width="1.5" rx="6"/><g clip-path="url(#clip-200152100)"><polygon points="235.6,165.6 264.4,165.6 264.4,194.4 235.6,194.4" fill="none" stroke="#334155" stroke-width="2"/><polygon points="215.6,207.6 244.4,207.6 244.4,236.4 215.6,236.4" fill="none" stroke="#334155" stroke-width="2"/><polygon points="255.6,207.6 284.4,207.6 284.4,236.4 255.6,236.4" fill="none" stroke="#334155" stroke-width="2"/></g></g>
<text x="360" y="146" text-anchor="middle" font-size="15" font-weight="bold" fill="#334155">C</text>
<g><clipPath id="clip-310152100"><rect x="310" y="152" width="100" height="100"/></clipPath><rect x="310" y="152" width="100" height="100" fill="none" stroke="#cbd5e1" stroke-width="1.5" rx="6"/><g clip-path="url(#clip-310152100)"><polygon points="342,163.6 362.4,184 342,204.4 321.6,184" fill="none" stroke="#334155" stroke-width="2"/><polygon points="378,199.6 398.4,220 378,240.4 357.6,220" fill="none" stroke="#334155" stroke-width="2"/></g></g>
<text x="470" y="146" text-anchor="middle" font-size="15" font-weight="bold" fill="#334155">D</text>
<g><clipPath id="clip-420152100"><rect x="420" y="152" width="100" height="100"/></clipPath><rect x="420" y="152" width="100" height="100" fill="none" stroke="#cbd5e1" stroke-width="1.5" rx="6"/><g clip-path="url(#clip-420152100)"><polygon points="437.6,169.6 466.4,169.6 466.4,198.4 437.6,198.4" fill="none" stroke="#334155" stroke-width="2"/><polygon points="473.6,205.6 502.4,205.6 502.4,234.4 473.6,234.4" fill="none" stroke="#334155" stroke-width="2"/></g></g>
</svg>