<svg xmlns="http://www.w3.org/2000/svg" viewBox="0 0 610 262" font-family="Arial, sans-serif">
<rect width="610" height="262" fill="#ffffff" rx="8"/>
<g><clipPath id="clip-1010110"><rect x="10" y="10" width="110" height="110"/></clipPath><rect x="10" y="10" width="110" height="110" fill="none" stroke="#cbd5e1" stroke-width="1.5" rx="6"/><g clip-path="url(#clip-1010110)"><polygon points="74.8,26 91.8,43.1 60.1,74.8 72.3,86.9 55.2,104 26,74.8" fill="#60a5fa" stroke="#334155" stroke-width="2"/></g></g>
<g><clipPath id="clip-13010110"><rect x="130" y="10" width="110" height="110"/></clipPath><rect x="130" y="10" width="110" height="110" fill="none" stroke="#cbd5e1" stroke-width="1.5" rx="6"/><g clip-path="url(#clip-13010110)"><polygon points="224,74.8 206.9,91.8 175.2,60.1 163.1,72.3 146,55.2 175.2,26" fill="#60a5fa" stroke="#334155" stroke-width="2"/></g></g>
<g><clipPath id="clip-25010110"><rect x="250" y="10" width="110" height="110"/></clipPath><rect x="250" y="10" width="110" height="110" fill="none" stroke="#cbd5e1" stroke-width="1.5" rx="6"/><g clip-path="url(#clip-25010110)"><polygon points="295.2,104 278.2,86.9 309.9,55.2 297.7,43.1 314.8,26 344,55.2" fill="#60a5fa" stroke="#334155" stroke-width="2"/></g></g>
<g><clipPath id="clip-37010110"><rect x="370" y="10" width="110" height="110"/></clipPath><rect x="370" y="10" width="110" height="110" fill="none" stroke="#cbd5e1" stroke-width="1.5" rx="6"/><g clip-path="url(#clip-37010110)"><polygon points="386,55.2 403.1,38.2 434.8,69.9 446.9,57.7 464,74.8 434.8,104" fill="#60a5fa" stroke="#334155" stroke-width="2"/></g></g>
<g><clipPath id="clip-49010110"><rect x="490" y="10" width="110" height="110"/></clipPath><rect x="490" y="10" width="110" height="110" fill="none" stroke="#cbd5e1" stroke-width="1.5" rx="6"/><text x="545" y="75" text-anchor="middle" font-size="44" fill="#334155">?</text></g>
<line x1="10" y1="130" x2="600" y2="130" stroke="#cbd5e1" stroke-width="1"/>
<text x="140" y="146" text-anchor="middle" font-size="15" font-weight="bold" fill="#334155">A</text>
<g><clipPath id="clip-90152100"><rect x="90" y="152" width="100" height="100"/></clipPath><rect x="90" y="152" width="100" height="100" fill="none" stroke="#cbd5e1" stroke-width="1.5" rx="6"/><g clip-path="url(#clip-90152100)"><polygon points="148.9,166.5 164.4,182 135.6,210.9 146.7,222 131.1,237.5 104.5,210.9" fill="#60a5fa" stroke="#334155" stroke-width="2"/></g></g>
<text x="250" y="146" text-anchor="middle" font-size="15" font-weight="bold" fill="#334155">B</text>
<g><clipPath id="clip-200152100"><rect x="200" y="152" width="100" height="100"/></clipPath><rect x="200" y="152" width="100" height="100" fill="none" stroke="#cbd5e1" stroke-width="1.5" rx="6"/><g clip-path="url(#clip-200152100)"><polygon points="272.2,179.8 267.7,210.9 260,203.1 233.4,229.7 222.3,218.6 248.9,192 241.1,184.3" fill="#60a5fa" stroke="#334155" stroke-width="2"/></g></g>
<text x="360" y="146" text-anchor="middle" font-size="15" font-weight="bold" fill="#334155">C</text>
<g><clipPath id="clip-310152100"><rect x="310" y="152" width="100" height="100"/></clipPath><rect x="310" y="152" width="100" height="100" fill="none" stroke="#cbd5e1" stroke-width="1.5" rx="6"/><g clip-path="url(#clip-310152100)"><polygon points="391.4,183.2 391.4,205.1 350.6,205.1 350.6,220.8 328.7,220.8 328.7,183.2" fill="#60a5fa" stroke="#334155" stroke-width="2"/></g></g>
<text x="470" y="146" text-anchor="middle" font-size="15" font-weight="bold" fill="#334155">D</text>
<g><clipPath id="clip-420152100"><rect x="420" y="152" width="100" height="100"/></clipPath><rect x="420" y="152" width="100" height="100" fill="none" stroke="#cbd5e1" stroke-width="1.5" rx="6"/><g clip-path="url(#clip-420152100)"><polygon points="451.2,170.7 473.1,170.7 473.1,211.4 488.8,211.4 488.8,233.4 451.2,233.4" fill="#60a5fa" stroke="#334155" stroke-width="2"/></g></g>
</svg>