<svg xmlns="http://www.w3.org/2000/svg" viewBox="0 0 610 262" font-family="Arial, sans-serif">
<rect width="610" height="262" fill="#ffffff" rx="8"/>
<g><clipPath id="clip-1010110"><rect x="10" y="10" width="110" height="110"/></clipPath><rect x="10" y="10" width="110" height="110" fill="none" stroke="#cbd5e1" stroke-width="1.5" rx="6"/><g clip-path="url(#clip-1010110)"><polygon points="89.4,40.6 95.7,80.6 59.6,99.1 30.9,70.4 49.4,34.3" fill="#60a5fa" stroke="#334155" stroke-width="2"/></g></g>
<g><clipPath id="clip-13010110"><rect x="130" y="10" width="110" height="110"/></clipPath><rect x="130" y="10" width="110" height="110" fill="none" stroke="#cbd5e1" stroke-width="1.5" rx="6"/><g clip-path="url(#clip-13010110)"><polygon points="219.5,65 195.7,97.8 157.1,85.3 157.1,44.7 195.7,32.2" fill="#60a5fa" stroke="#334155" stroke-width="2"/></g></g>
<g><clipPath id="clip-25010110"><rect x="250" y="10" width="110" height="110"/></clipPath><rect x="250" y="10" width="110" height="110" fill="none" stroke="#cbd5e1" stroke-width="1.5" rx="6"/><g clip-path="url(#clip-25010110)"><polygon points="305,99.5 272.2,75.7 284.7,37.1 325.3,37.1 337.8,75.7" fill="#60a5fa" stroke="#334155" stroke-width="2"/></g></g>
<g><clipPath id="clip-37010110"><rect x="370" y="10" width="110" height="110"/></clipPath><rect x="370" y="10" width="110" height="110" fill="none" stroke="#cbd5e1" stroke-width="1.5" rx="6"/><g clip-path="url(#clip-37010110)"><polygon points="400.6,40.6 440.6,34.3 459.1,70.4 430.4,99.1 394.3,80.6" fill="#60a5fa" stroke="#334155" stroke-width="2"/></g></g>
<g><clipPath id="clip-49010110"><rect x="490" y="10" width="110" height="110"/></clipPath><rect x="490" y="10" width="110" height="110" fill="none" stroke="#cbd5e1" stroke-width="1.5" rx="6"/><text x="545" y="75" text-anchor="middle" font-size="44" fill="#334155">?</text></g>
<line x1="10" y1="130" x2="600" y2="130" stroke="#cbd5e1" stroke-width="1"/>
<text x="140" y="146" text-anchor="middle" font-size="15" font-weight="bold" fill="#334155">A</text>
<g><clipPath id="clip-90152100"><rect x="90" y="152" width="100" height="100"/></clipPath><rect x="90" y="152" width="100" height="100" fill="none" stroke="#cbd5e1" stroke-width="1.5" rx="6"/><g clip-path="url(#clip-90152100)"><polygon points="171.4,202 149.7,231.8 114.6,220.5 114.6,183.5 149.7,172.2" fill="#60a5fa" stroke="#334155" stroke-width="2"/></g></g>
<text x="250" y="146" text-anchor="middle" font-size="15" font-weight="bold" fill="#334155">B</text>
<g><clipPath id="clip-200152100"><rect x="200" y="152" width="100" height="100"/></clipPath><rect x="200" y="152" width="100" height="100" fill="none" stroke="#cbd5e1" stroke-width="1.5" rx="6"/><g clip-path="url(#clip-200152100)"><polygon points="285.5,210.9 270,226.4 241.1,197.6 230,208.7 214.5,193.1 241.1,166.5" fill="#60a5fa" stroke="#334155" stroke-width="2"/></g></g>
<text x="360" y="146" text-anchor="middle" font-size="15" font-weight="bold" fill="#334155">C</text>
<g><clipPath id="clip-310152100"><rect x="310" y="152" width="100" height="100"/></clipPath><rect x="310" y="152" width="100" height="100" fill="none" stroke="#cbd5e1" stroke-width="1.5" rx="6"/><g clip-path="url(#clip-310152100)"><polygon points="382.2,224.2 345.8,229.9 329,197.1 355.1,171 387.9,187.8" fill="#60a5fa" stroke="#334155" stroke-width="2"/></g></g>
<text x="470" y="146" text-anchor="middle" font-size="15" font-weight="bold" fill="#334155">D</text>
<g><clipPath id="clip-420152100"><rect x="420" y="152" width="100" height="100"/></clipPath><rect x="420" y="152" width="100" height="100" fill="none" stroke="#cbd5e1" stroke-width="1.5" rx="6"/><g clip-path="url(#clip-420152100)"><polygon points="470,233.4 440.2,211.7 451.5,176.6 488.5,176.6 499.8,211.7" fill="#60a5fa" stroke="#334155" stroke-width="2"/></g></g>
</svg>