<svg xmlns="http://www.w3.org/2000/svg" viewBox="0 0 610 262" font-family="Arial, sans-serif">
<rect width="610" height="262" fill="#ffffff" rx="8"/>
<g><clipPath id="clip-1010110"><rect x="10" y="10" width="110" height="110"/></clipPath><rect x="10" y="10" width="110" height="110" fill="none" stroke="#cbd5e1" stroke-width="1.5" rx="6"/><g clip-path="url(#clip-1010110)"><polygon points="44.3,30.5 68.4,30.5 68.4,75.3 85.7,75.3 85.7,99.5 44.3,99.5" fill="#60a5fa" stroke="#334155" stroke-width="2"/></g></g>
<g><clipPath id="clip-13010110"><rect x="130" y="10" width="110" height="110"/></clipPath><rect x="130" y="10" width="110" height="110" fill="none" stroke="#cbd5e1" stroke-width="1.5" rx="6"/><g clip-path="url(#clip-13010110)"><polygon points="219.5,44.3 219.5,68.4 174.7,68.4 174.7,85.7 150.5,85.7 150.5,44.3" fill="#60a5fa" stroke="#334155" stroke-width="2"/></g></g>
<g><clipPath id="clip-25010110"><rect x="250" y="10" width="110" height="110"/></clipPath><rect x="250" y="10" width="110" height="110" fill="none" stroke="#cbd5e1" stroke-width="1.5" rx="6"/><g clip-path="url(#clip-25010110)"><polygon points="325.7,99.5 301.6,99.5 301.6,54.7 284.3,54.7 284.3,30.5 325.7,30.5" fill="#60a5fa" stroke="#334155" stroke-width="2"/></g></g>
<g><clipPath id="clip-37010110"><rect x="370" y="10" width="110" height="110"/></clipPath><rect x="370" y="10" width="110" height="110" fill="none" stroke="#cbd5e1" stroke-width="1.5" rx="6"/><g clip-path="url(#clip-37010110)"><polygon points="390.5,85.7 390.5,61.6 435.3,61.6 435.3,44.3 459.5,44.3 459.5,85.7" fill="#60a5fa" stroke="#334155" stroke-width="2"/></g></g>
<g><clipPath id="clip-49010110"><rect x="490" y="10" width="110" height="110"/></clipPath><rect x="490" y="10" width="110" height="110" fill="none" stroke="#cbd5e1" stroke-width="1.5" rx="6"/><text x="545" y="75" text-anchor="middle" font-size="44" fill="#334155">?</text></g>
<line x1="10" y1="130" x2="600" y2="130" stroke="#cbd5e1" stroke-width="1"/>
<text x="140" y="146" text-anchor="middle" font-size="15" font-weight="bold" fill="#334155">A</text>
<g><clipPath id="clip-90152100"><rect x="90" y="152" width="100" height="100"/></clipPath><rect x="90" y="152" width="100" height="100" fill="none" stroke="#cbd5e1" stroke-width="1.5" rx="6"/><g clip-path="url(#clip-90152100)"><polygon points="140,170.7 161.9,183.2 140,195.7 140,233.4 135.3,233.4 135.3,170.7" fill="#60a5fa" stroke="#334155" stroke-width="2"/></g></g>
<text x="250" y="146" text-anchor="middle" font-size="15" font-weight="bold" fill="#334155">B</text>
<g><clipPath id="clip-200152100"><rect x="200" y="152" width="100" height="100"/></clipPath><rect x="200" y="152" width="100" height="100" fill="none" stroke="#cbd5e1" stroke-width="1.5" rx="6"/><g clip-path="url(#clip-200152100)"><polygon points="231.2,170.7 253.1,170.7 253.1,211.4 268.8,211.4 268.8,233.4 231.2,233.4" fill="#60a5fa" stroke="#334155" stroke-width="2"/></g></g>
<text x="360" y="146" text-anchor="middle" font-size="15" font-weight="bold" fill="#334155">C</text>
<g><clipPath id="clip-310152100"><rect x="310" y="152" width="100" height="100"/></clipPath><rect x="310" y="152" width="100" height="100" fill="none" stroke="#cbd5e1" stroke-width="1.5" rx="6"/><g clip-path="url(#clip-310152100)"><polygon points="368.9,166.5 384.4,182 355.6,210.9 366.7,222 351.1,237.5 324.5,210.9" fill="#60a5fa" stroke="#334155" stroke-width="2"/></g></g>
<text x="470" y="146" text-anchor="middle" font-size="15" font-weight="bold" fill="#334155">D</text>
<g><clipPath id="clip-420152100"><rect x="420" y="152" width="100" height="100"/></clipPath><rect x="420" y="152" width="100" height="100" fill="none" stroke="#cbd5e1" stroke-width="1.5" rx="6"/><g clip-path="url(#clip-420152100)"><polygon points="434.5,193.1 450,177.6 478.9,206.4 490,195.3 505.5,210.9 478.9,237.5" fill="#60a5fa" stroke="#334155" stroke-width="2"/></g></g>
</svg>