<svg xmlns="http://www.w3.org/2000/svg" viewBox="0 0 610 262" font-family="Arial, sans-serif">
<rect width="610" height="262" fill="#ffffff" rx="8"/>
<g><clipPath id="clip-1010110"><rect x="10" y="10" width="110" height="110"/></clipPath><rect x="10" y="10" width="110" height="110" fill="none" stroke="#cbd5e1" stroke-width="1.5" rx="6"/><g clip-path="url(#clip-1010110)"><polygon points="85.7,99.5 61.6,99.5 61.6,54.7 44.3,54.7 44.3,30.5 85.7,30.5" fill="none" stroke="#334155" stroke-width="2"/></g></g>
<g><clipPath id="clip-13010110"><rect x="130" y="10" width="110" height="110"/></clipPath><rect x="130" y="10" width="110" height="110" fill="none" stroke="#cbd5e1" stroke-width="1.5" rx="6"/><g clip-path="url(#clip-13010110)"><polygon points="175.2,104 158.2,86.9 189.9,55.2 177.7,43.1 194.8,26 224,55.2" fill="none" stroke="#334155" stroke-width="2"/></g></g>
<g><clipPath id="clip-25010110"><rect x="250" y="10" width="110" height="110"/></clipPath><rect x="250" y="10" width="110" height="110" fill="none" stroke="#cbd5e1" stroke-width="1.5" rx="6"/><g clip-path="url(#clip-25010110)"><polygon points="266,55.2 283.1,38.2 314.8,69.9 326.9,57.7 344,74.8 314.8,104" fill="none" stroke="#334155" stroke-width="2"/></g></g>
<g><clipPath id="clip-37010110"><rect x="370" y="10" width="110" height="110"/></clipPath><rect x="370" y="10" width="110" height="110" fill="none" stroke="#cbd5e1" stroke-width="1.5" rx="6"/><g clip-path="url(#clip-37010110)"><polygon points="459.5,44.3 459.5,68.4 414.7,68.4 414.7,85.7 390.5,85.7 390.5,44.3" fill="none" stroke="#334155" stroke-width="2"/></g></g>
<g><clipPath id="clip-49010110"><rect x="490" y="10" width="110" height="110"/></clipPath><rect x="490" y="10" width="110" height="110" fill="none" stroke="#cbd5e1" stroke-width="1.5" rx="6"/><text x="545" y="75" text-anchor="middle" font-size="44" fill="#334155">?</text></g>
<line x1="10" y1="130" x2="600" y2="130" stroke="#cbd5e1" stroke-width="1"/>
<text x="140" y="146" text-anchor="middle" font-size="15" font-weight="bold" fill="#334155">A</text>
<g><clipPath id="clip-90152100"><rect x="90" y="152" width="100" height="100"/></clipPath><rect x="90" y="152" width="100" height="100" fill="none" stroke="#cbd5e1" stroke-width="1.5" rx="6"/><g clip-path="url(#clip-90152100)"><polygon points="108.7,202 121.2,180.1 133.7,202 171.4,202 171.4,206.7 108.7,206.7" fill="none" stroke="#334155" stroke-width="2"/></g></g>
<text x="250" y="146" text-anchor="middle" font-size="15" font-weight="bold" fill="#334155">B</text>
<g><clipPath id="clip-200152100"><rect x="200" y="152" width="100" height="100"/></clipPath><rect x="200" y="152" width="100" height="100" fill="none" stroke="#cbd5e1" stroke-width="1.5" rx="6"/><g clip-path="url(#clip-200152100)"><polygon points="214.5,193.1 230,177.6 258.9,206.4 270,195.3 285.5,210.9 258.9,237.5" fill="none" stroke="#334155" stroke-width="2"/></g></g>
<text x="360" y="146" text-anchor="middle" font-size="15" font-weight="bold" fill="#334155">C</text>
<g><clipPath id="clip-310152100"><rect x="310" y="152" width="100" height="100"/></clipPath><rect x="310" y="152" width="100" height="100" fill="none" stroke="#cbd5e1" stroke-width="1.5" rx="6"/><g clip-path="url(#clip-310152100)"><polygon points="328.7,220.8 328.7,198.9 369.4,198.9 369.4,183.2 391.4,183.2 391.4,220.8" fill="none" stroke="#334155" stroke-width="2"/></g></g>
<text x="470" y="146" text-anchor="middle" font-size="15" font-weight="bold" fill="#334155">D</text>
<g><clipPath id="clip-420152100"><rect x="420" y="152" width="100" height="100"/></clipPath><rect x="420" y="152" width="100" height="100" fill="none" stroke="#cbd5e1" stroke-width="1.5" rx="6"/><g clip-path="url(#clip-420152100)"><polygon points="461.1,237.5 445.6,222 474.4,193.1 463.3,182 478.9,166.5 505.5,193.1" fill="none" stroke="#334155" stroke-width="2"/></g></g>
</svg>