<svg xmlns="http://www.w3.org/2000/svg" viewBox="0 0 450 502" font-family="Arial, sans-serif">
<rect width="450" height="502" fill="#ffffff" rx="8"/>
<g><clipPath id="clip-5010110"><rect x="50" y="10" width="110" height="110"/></clipPath><rect x="50" y="10" width="110" height="110" fill="none" stroke="#cbd5e1" stroke-width="1.5" rx="6"/><g clip-path="url(#clip-5010110)"><polygon points="97.2,41.4 112.8,41.4 112.8,57.2 128.6,57.2 128.6,72.8 112.8,72.8 112.8,88.6 97.2,88.6 97.2,72.8 81.4,72.8 81.4,57.2 97.2,57.2" fill="#60a5fa" stroke="#334155" stroke-width="2"/></g></g>
<g><clipPath id="clip-17010110"><rect x="170" y="10" width="110" height="110"/></clipPath><rect x="170" y="10" width="110" height="110" fill="none" stroke="#cbd5e1" stroke-width="1.5" rx="6"/><g clip-path="url(#clip-17010110)"><polygon points="214.8,34.1 235.2,34.1 235.2,54.8 255.9,54.8 255.9,75.2 235.2,75.2 235.2,95.9 214.8,95.9 214.8,75.2 194.1,75.2 194.1,54.8 214.8,54.8" fill="#60a5fa" stroke="#334155" stroke-width="2"/></g></g>
<g><clipPath id="clip-29010110"><rect x="290" y="10" width="110" height="110"/></clipPath><rect x="290" y="10" width="110" height="110" fill="none" stroke="#cbd5e1" stroke-width="1.5" rx="6"/><g clip-path="url(#clip-29010110)"><polygon points="332.4,26.9 357.6,26.9 357.6,52.4 383.1,52.4 383.1,77.6 357.6,77.6 357.6,103.1 332.4,103.1 332.4,77.6 306.9,77.6 306.9,52.4 332.4,52.4" fill="#60a5fa" stroke="#334155" stroke-width="2"/></g></g>
<g><clipPath id="clip-50130110"><rect x="50" y="130" width="110" height="110"/></clipPath><rect x="50" y="130" width="110" height="110" fill="none" stroke="#cbd5e1" stroke-width="1.5" rx="6"/><g clip-path="url(#clip-50130110)"><polygon points="116.8,164.5 128.6,185 116.8,205.5 93.2,205.5 81.4,185 93.2,164.5" fill="#60a5fa" stroke="#334155" stroke-width="2"/></g></g>
<g><clipPath id="clip-170130110"><rect x="170" y="130" width="110" height="110"/></clipPath><rect x="170" y="130" width="110" height="110" fill="none" stroke="#cbd5e1" stroke-width="1.5" rx="6"/><g clip-path="url(#clip-170130110)"><polygon points="240.4,158.2 255.9,185 240.4,211.8 209.6,211.8 194.1,185 209.6,158.2" fill="#60a5fa" stroke="#334155" stroke-width="2"/></g></g>
<g><clipPath id="clip-290130110"><rect x="290" y="130" width="110" height="110"/></clipPath><rect x="290" y="130" width="110" height="110" fill="none" stroke="#cbd5e1" stroke-width="1.5" rx="6"/><g clip-path="url(#clip-290130110)"><polygon points="364.1,151.8 383.1,185 364.1,218.2 325.9,218.2 306.9,185 325.9,151.8" fill="#60a5fa" stroke="#334155" stroke-width="2"/></g></g>
<g><clipPath id="clip-50250110"><rect x="50" y="250" width="110" height="110"/></clipPath><rect x="50" y="250" width="110" height="110" fill="none" stroke="#cbd5e1" stroke-width="1.5" rx="6"/><g clip-path="url(#clip-50250110)"><polygon points="105,281.4 110.2,297.7 127.4,297.7 113.5,307.8 118.9,324.1 105,314 91.1,324.1 96.5,307.8 82.6,297.7 99.8,297.7" fill="#60a5fa" stroke="#334155" stroke-width="2"/></g></g>
<g><clipPath id="clip-170250110"><rect x="170" y="250" width="110" height="110"/></clipPath><rect x="170" y="250" width="110" height="110" fill="none" stroke="#cbd5e1" stroke-width="1.5" rx="6"/><g clip-path="url(#clip-170250110)"><polygon points="225,274.1 231.8,295.4 254.3,295.4 236.1,308.7 243.2,330 225,316.7 206.8,330 213.9,308.7 195.7,295.4 218.2,295.4" fill="#60a5fa" stroke="#334155" stroke-width="2"/></g></g>
<g><clipPath id="clip-290250110"><rect x="290" y="250" width="110" height="110"/></clipPath><rect x="290" y="250" width="110" height="110" fill="none" stroke="#cbd5e1" stroke-width="1.5" rx="6"/><text x="345" y="315" text-anchor="middle" font-size="44" fill="#334155">?</text></g>
<line x1="10" y1="370" x2="440" y2="370" stroke="#cbd5e1" stroke-width="1"/>
<text x="60" y="386" text-anchor="middle" font-size="15" font-weight="bold" fill="#334155">A</text>
<g><clipPath id="clip-10392100"><rect x="10" y="392" width="100" height="100"/></clipPath><rect x="10" y="392" width="100" height="100" fill="none" stroke="#cbd5e1" stroke-width="1.5" rx="6"/><g clip-path="url(#clip-10392100)"><polygon points="60,407.4 67.6,431.3 92.9,431.3 72.5,446.2 80.4,470.1 60,455.2 39.6,470.1 47.5,446.2 27.1,431.3 52.4,431.3" fill="#60a5fa" stroke="#334155" stroke-width="2"/></g></g>
<text x="170" y="386" text-anchor="middle" font-size="15" font-weight="bold" fill="#334155">B</text>
<g><clipPath id="clip-120392100"><rect x="120" y="392" width="100" height="100"/></clipPath><rect x="120" y="392" width="100" height="100" fill="none" stroke="#cbd5e1" stroke-width="1.5" rx="6"/><g clip-path="url(#clip-120392100)"><polygon points="187.3,411.9 204.7,442 187.3,472.1 152.7,472.1 135.4,442 152.7,411.9" fill="#60a5fa" stroke="#334155" stroke-width="2"/></g></g>
<text x="280" y="386" text-anchor="middle" font-size="15" font-weight="bold" fill="#334155">C</text>
<g><clipPath id="clip-230392100"><rect x="230" y="392" width="100" height="100"/></clipPath><rect x="230" y="392" width="100" height="100" fill="none" stroke="#cbd5e1" stroke-width="1.5" rx="6"/><g clip-path="url(#clip-230392100)"><polygon points="314.7,442 290.7,449.6 290.7,474.9 275.8,454.5 251.9,462.4 266.8,442 251.9,421.6 275.8,429.5 290.7,409.1 290.7,434.4" fill="#60a5fa" stroke="#334155" stroke-width="2"/></g></g>
<text x="390" y="386" text-anchor="middle" font-size="15" font-weight="bold" fill="#334155">D</text>
<g><clipPath id="clip-340392100"><rect x="340" y="392" width="100" height="100"/></clipPath><rect x="340" y="392" width="100" height="100" fill="none" stroke="#cbd5e1" stroke-width="1.5" rx="6"/><g clip-path="url(#clip-340392100)"><polygon points="378.6,407.4 401.4,407.4 401.4,430.6 424.7,430.6 424.7,453.4 401.4,453.4 401.4,476.7 378.6,476.7 378.6,453.4 355.4,453.4 355.4,430.6 378.6,430.6" fill="#60a5fa" stroke="#334155" stroke-width="2"/></g></g>
</svg>