<svg xmlns="http://www.w3.org/2000/svg" viewBox="0 0 450 502" font-family="Arial, sans-serif">
<rect width="450" height="502" fill="#ffffff" rx="8"/>
<g><clipPath id="clip-5010110"><rect x="50" y="10" width="110" height="110"/></clipPath><rect x="50" y="10" width="110" height="110" fill="none" stroke="#cbd5e1" stroke-width="1.5" rx="6"/><g clip-path="url(#clip-5010110)"><polygon points="105,20.9 123.9,34.6 116.7,56.9 93.3,56.9 86.1,34.6" fill="#60a5fa" stroke="#334155" stroke-width="2"/><polygon points="83,67.1 101.9,80.8 94.7,103.1 71.3,103.1 64.1,80.8" fill="#60a5fa" stroke="#334155" stroke-width="2"/><polygon points="127,67.1 145.9,80.8 138.7,103.1 115.3,103.1 108.1,80.8" fill="#60a5fa" stroke="#334155" stroke-width="2"/></g></g>
<g><clipPath id="clip-17010110"><rect x="170" y="10" width="110" height="110"/></clipPath><rect x="170" y="10" width="110" height="110" fill="none" stroke="#cbd5e1" stroke-width="1.5" rx="6"/><g clip-path="url(#clip-17010110)"><circle cx="205.2" cy="45.2" r="19.9" fill="#60a5fa" stroke="#334155" stroke-width="2"/><circle cx="244.8" cy="84.8" r="19.9" fill="#60a5fa" stroke="#334155" stroke-width="2"/></g></g>
<g><clipPath id="clip-29010110"><rect x="290" y="10" width="110" height="110"/></clipPath><rect x="290" y="10" width="110" height="110" fill="none" stroke="#cbd5e1" stroke-width="1.5" rx="6"/><g clip-path="url(#clip-29010110)"><polygon points="345,30.5 379.5,65 345,99.5 310.5,65" fill="#60a5fa" stroke="#334155" stroke-width="2"/></g></g>
<g><clipPath id="clip-50130110"><rect x="50" y="130" width="110" height="110"/></clipPath><rect x="50" y="130" width="110" height="110" fill="none" stroke="#cbd5e1" stroke-width="1.5" rx="6"/><g clip-path="url(#clip-50130110)"><circle cx="105" cy="160.8" r="19.9" fill="#60a5fa" stroke="#334155" stroke-width="2"/><circle cx="83" cy="207" r="19.9" fill="#60a5fa" stroke="#334155" stroke-width="2"/><circle cx="127" cy="207" r="19.9" fill="#60a5fa" stroke="#334155" stroke-width="2"/></g></g>
<g><clipPath id="clip-170130110"><rect x="170" y="130" width="110" height="110"/></clipPath><rect x="170" y="130" width="110" height="110" fill="none" stroke="#cbd5e1" stroke-width="1.5" rx="6"/><g clip-path="url(#clip-170130110)"><polygon points="205.2,145.3 225.1,165.2 205.2,185.1 185.3,165.2" fill="#60a5fa" stroke="#334155" stroke-width="2"/><polygon points="244.8,184.9 264.7,204.8 244.8,224.7 224.9,204.8" fill="#60a5fa" stroke="#334155" stroke-width="2"/></g></g>
<g><clipPath id="clip-290130110"><rect x="290" y="130" width="110" height="110"/></clipPath><rect x="290" y="130" width="110" height="110" fill="none" stroke="#cbd5e1" stroke-width="1.5" rx="6"/><g clip-path="url(#clip-290130110)"><polygon points="345,150.5 377.8,174.3 365.3,212.9 324.7,212.9 312.2,174.3" fill="#60a5fa" stroke="#334155" stroke-width="2"/></g></g>
<g><clipPath id="clip-50250110"><rect x="50" y="250" width="110" height="110"/></clipPath><rect x="50" y="250" width="110" height="110" fill="none" stroke="#cbd5e1" stroke-width="1.5" rx="6"/><g clip-path="url(#clip-50250110)"><polygon points="105,260.9 124.9,280.8 105,300.7 85.1,280.8" fill="#60a5fa" stroke="#334155" stroke-width="2"/><polygon points="83,307.1 102.9,327 83,346.9 63.1,327" fill="#60a5fa" stroke="#334155" stroke-width="2"/><polygon points="127,307.1 146.9,327 127,346.9 107.1,327" fill="#60a5fa" stroke="#334155" stroke-width="2"/></g></g>
<g><clipPath id="clip-170250110"><rect x="170" y="250" width="110" height="110"/></clipPath><rect x="170" y="250" width="110" height="110" fill="none" stroke="#cbd5e1" stroke-width="1.5" rx="6"/><g clip-path="url(#clip-170250110)"><polygon points="205.2,265.3 224.1,279 216.9,301.3 193.5,301.3 186.3,279" fill="#60a5fa" stroke="#334155" stroke-width="2"/><polygon points="244.8,304.9 263.7,318.6 256.5,340.9 233.1,340.9 225.9,318.6" fill="#60a5fa" stroke="#334155" stroke-width="2"/></g></g>
<g><clipPath id="clip-290250110"><rect x="290" y="250" width="110" height="110"/></clipPath><rect x="290" y="250" width="110" height="110" fill="none" stroke="#cbd5e1" stroke-width="1.5" rx="6"/><text x="345" y="315" text-anchor="middle" font-size="44" fill="#334155">?</text></g>
<line x1="10" y1="370" x2="440" y2="370" stroke="#cbd5e1" stroke-width="1"/>
<text x="60" y="386" text-anchor="middle" font-size="15" font-weight="bold" fill="#334155">A</text>
<g><clipPath id="clip-10392100"><rect x="10" y="392" width="100" height="100"/></clipPath><rect x="10" y="392" width="100" height="100" fill="none" stroke="#cbd5e1" stroke-width="1.5" rx="6"/><g clip-path="url(#clip-10392100)"><polygon points="60,410.7 89.8,432.3 78.5,467.4 41.5,467.4 30.2,432.3" fill="#60a5fa" stroke="#334155" stroke-width="2"/></g></g>
<text x="170" y="386" text-anchor="middle" font-size="15" font-weight="bold" fill="#334155">B</text>
<g><clipPath id="clip-120392100"><rect x="120" y="392" width="100" height="100"/></clipPath><rect x="120" y="392" width="100" height="100" fill="none" stroke="#cbd5e1" stroke-width="1.5" rx="6"/><g clip-path="url(#clip-120392100)"><polygon points="170,410.7 201.4,442 170,473.4 138.7,442" fill="#60a5fa" stroke="#334155" stroke-width="2"/></g></g>
<text x="280" y="386" text-anchor="middle" font-size="15" font-weight="bold" fill="#334155">C</text>
<g><clipPath id="clip-230392100"><rect x="230" y="392" width="100" height="100"/></clipPath><rect x="230" y="392" width="100" height="100" fill="none" stroke="#cbd5e1" stroke-width="1.5" rx="6"/><g clip-path="url(#clip-230392100)"><circle cx="262" cy="424" r="18.1" fill="#60a5fa" stroke="#334155" stroke-width="2"/><circle cx="298" cy="460" r="18.1" fill="#60a5fa" stroke="#334155" stroke-width="2"/></g></g>
<text x="390" y="386" text-anchor="middle" font-size="15" font-weight="bold" fill="#334155">D</text>
<g><clipPath id="clip-340392100"><rect x="340" y="392" width="100" height="100"/></clipPath><rect x="340" y="392" width="100" height="100" fill="none" stroke="#cbd5e1" stroke-width="1.5" rx="6"/><g clip-path="url(#clip-340392100)"><circle cx="390" cy="442" r="31.4" fill="#60a5fa" stroke="#334155" stroke-width="2"/></g></g>
</svg>