<svg xmlns="http://www.w3.org/2000/svg" viewBox="0 0 450 502" font-family="Arial, sans-serif">
<rect width="450" height="502" fill="#ffffff" rx="8"/>
<g><clipPath id="clip-5010110"><rect x="50" y="10" width="110" height="110"/></clipPath><rect x="50" y="10" width="110" height="110" fill="none" stroke="#cbd5e1" stroke-width="1.5" rx="6"/><g clip-path="url(#clip-5010110)"><polygon points="98.4,20.9 111.6,20.9 111.6,34.2 124.9,34.2 124.9,47.4 111.6,47.4 111.6,60.7 98.4,60.7 98.4,47.4 85.1,47.4 85.1,34.2 98.4,34.2" fill="#60a5fa" stroke="#334155" stroke-width="2"/><polygon points="76.4,67.1 89.6,67.1 89.6,80.4 102.9,80.4 102.9,93.6 89.6,93.6 89.6,106.9 76.4,106.9 76.4,93.6 63.1,93.6 63.1,80.4 76.4,80.4" fill="#60a5fa" stroke="#334155" stroke-width="2"/><polygon points="120.4,67.1 133.6,67.1 133.6,80.4 146.9,80.4 146.9,93.6 133.6,93.6 133.6,106.9 120.4,106.9 120.4,93.6 107.1,93.6 107.1,80.4 120.4,80.4" fill="#60a5fa" stroke="#334155" stroke-width="2"/></g></g>
<g><clipPath id="clip-17010110"><rect x="170" y="10" width="110" height="110"/></clipPath><rect x="170" y="10" width="110" height="110" fill="none" stroke="#cbd5e1" stroke-width="1.5" rx="6"/><g clip-path="url(#clip-17010110)"><polygon points="189.3,29.3 221.1,29.3 221.1,61.1 189.3,61.1" fill="#60a5fa" stroke="#334155" stroke-width="2"/><polygon points="228.9,68.9 260.7,68.9 260.7,100.7 228.9,100.7" fill="#60a5fa" stroke="#334155" stroke-width="2"/></g></g>
<g><clipPath id="clip-29010110"><rect x="290" y="10" width="110" height="110"/></clipPath><rect x="290" y="10" width="110" height="110" fill="none" stroke="#cbd5e1" stroke-width="1.5" rx="6"/><g clip-path="url(#clip-29010110)"><polygon points="345,30.5 379.5,65 345,99.5 310.5,65" fill="#60a5fa" stroke="#334155" stroke-width="2"/></g></g>
<g><clipPath id="clip-50130110"><rect x="50" y="130" width="110" height="110"/></clipPath><rect x="50" y="130" width="110" height="110" fill="none" stroke="#cbd5e1" stroke-width="1.5" rx="6"/><g clip-path="url(#clip-50130110)"><polygon points="89.1,144.9 120.9,144.9 120.9,176.7 89.1,176.7" fill="#60a5fa" stroke="#334155" stroke-width="2"/><polygon points="67.1,191.1 98.9,191.1 98.9,222.9 67.1,222.9" fill="#60a5fa" stroke="#334155" stroke-width="2"/><polygon points="111.1,191.1 142.9,191.1 142.9,222.9 111.1,222.9" fill="#60a5fa" stroke="#334155" stroke-width="2"/></g></g>
<g><clipPath id="clip-170130110"><rect x="170" y="130" width="110" height="110"/></clipPath><rect x="170" y="130" width="110" height="110" fill="none" stroke="#cbd5e1" stroke-width="1.5" rx="6"/><g clip-path="url(#clip-170130110)"><polygon points="205.2,145.3 225.1,165.2 205.2,185.1 185.3,165.2" fill="#60a5fa" stroke="#334155" stroke-width="2"/><polygon points="244.8,184.9 264.7,204.8 244.8,224.7 224.9,204.8" fill="#60a5fa" stroke="#334155" stroke-width="2"/></g></g>
<g><clipPath id="clip-290130110"><rect x="290" y="130" width="110" height="110"/></clipPath><rect x="290" y="130" width="110" height="110" fill="none" stroke="#cbd5e1" stroke-width="1.5" rx="6"/><g clip-path="url(#clip-290130110)"><polygon points="333.6,150.5 356.4,150.5 356.4,173.6 379.5,173.6 379.5,196.4 356.4,196.4 356.4,219.5 333.6,219.5 333.6,196.4 310.5,196.4 310.5,173.6 333.6,173.6" fill="#60a5fa" stroke="#334155" stroke-width="2"/></g></g>
<g><clipPath id="clip-50250110"><rect x="50" y="250" width="110" height="110"/></clipPath><rect x="50" y="250" width="110" height="110" fill="none" stroke="#cbd5e1" stroke-width="1.5" rx="6"/><g clip-path="url(#clip-50250110)"><polygon points="105,260.9 124.9,280.8 105,300.7 85.1,280.8" fill="#60a5fa" stroke="#334155" stroke-width="2"/><polygon points="83,307.1 102.9,327 83,346.9 63.1,327" fill="#60a5fa" stroke="#334155" stroke-width="2"/><polygon points="127,307.1 146.9,327 127,346.9 107.1,327" fill="#60a5fa" stroke="#334155" stroke-width="2"/></g></g>
<g><clipPath id="clip-170250110"><rect x="170" y="250" width="110" height="110"/></clipPath><rect x="170" y="250" width="110" height="110" fill="none" stroke="#cbd5e1" stroke-width="1.5" rx="6"/><g clip-path="url(#clip-170250110)"><polygon points="198.6,265.3 211.8,265.3 211.8,278.6 225.1,278.6 225.1,291.8 211.8,291.8 211.8,305.1 198.6,305.1 198.6,291.8 185.3,291.8 185.3,278.6 198.6,278.6" fill="#60a5fa" stroke="#334155" stroke-width="2"/><polygon points="238.2,304.9 251.4,304.9 251.4,318.2 264.7,318.2 264.7,331.4 251.4,331.4 251.4,344.7 238.2,344.7 238.2,331.4 224.9,331.4 224.9,318.2 238.2,318.2" fill="#60a5fa" stroke="#334155" stroke-width="2"/></g></g>
<g><clipPath id="clip-290250110"><rect x="290" y="250" width="110" height="110"/></clipPath><rect x="290" y="250" width="110" height="110" fill="none" stroke="#cbd5e1" stroke-width="1.5" rx="6"/><text x="345" y="315" text-anchor="middle" font-size="44" fill="#334155">?</text></g>
<line x1="10" y1="370" x2="440" y2="370" stroke="#cbd5e1" stroke-width="1"/>
<text x="60" y="386" text-anchor="middle" font-size="15" font-weight="bold" fill="#334155">A</text>
<g><clipPath id="clip-10392100"><rect x="10" y="392" width="100" height="100"/></clipPath><rect x="10" y="392" width="100" height="100" fill="none" stroke="#cbd5e1" stroke-width="1.5" rx="6"/><g clip-path="url(#clip-10392100)"><polygon points="34.9,416.9 85.1,416.9 85.1,467.1 34.9,467.1" fill="#60a5fa" stroke="#334155" stroke-width="2"/></g></g>
<text x="170" y="386" text-anchor="middle" font-size="15" font-weight="bold" fill="#334155">B</text>
<g><clipPath id="clip-120392100"><rect x="120" y="392" width="100" height="100"/></clipPath><rect x="120" y="392" width="100" height="100" fill="none" stroke="#cbd5e1" stroke-width="1.5" rx="6"/><g clip-path="url(#clip-120392100)"><polygon points="159.7,410.7 180.3,410.7 180.3,431.7 201.4,431.7 201.4,452.3 180.3,452.3 180.3,473.4 159.7,473.4 159.7,452.3 138.7,452.3 138.7,431.7 159.7,431.7" fill="#60a5fa" stroke="#334155" stroke-width="2"/></g></g>
<text x="280" y="386" text-anchor="middle" font-size="15" font-weight="bold" fill="#334155">C</text>
<g><clipPath id="clip-230392100"><rect x="230" y="392" width="100" height="100"/></clipPath><rect x="230" y="392" width="100" height="100" fill="none" stroke="#cbd5e1" stroke-width="1.5" rx="6"/><g clip-path="url(#clip-230392100)"><polygon points="247.6,409.6 276.4,409.6 276.4,438.4 247.6,438.4" fill="#60a5fa" stroke="#334155" stroke-width="2"/><polygon points="283.6,445.6 312.4,445.6 312.4,474.4 283.6,474.4" fill="#60a5fa" stroke="#334155" stroke-width="2"/></g></g>
<text x="390" y="386" text-anchor="middle" font-size="15" font-weight="bold" fill="#334155">D</text>
<g><clipPath id="clip-340392100"><rect x="340" y="392" width="100" height="100"/></clipPath><rect x="340" y="392" width="100" height="100" fill="none" stroke="#cbd5e1" stroke-width="1.5" rx="6"/><g clip-path="url(#clip-340392100)"><polygon points="390,410.7 421.4,442 390,473.4 358.7,442" fill="#60a5fa" stroke="#334155" stroke-width="2"/></g></g>
</svg>